<mxfile host="app.diagrams.net" agent="Mozilla/5.0 (Windows NT 10.0; Win64; x64) AppleWebKit/537.36 (KHTML, like Gecko) Chrome/131.0.0.0 Safari/537.36" version="25.0.3">
  <diagram name="第 1 页" id="mszT4RwJOENxSYjPd7gL">
    <mxGraphModel dx="1050" dy="522" grid="1" gridSize="10" guides="1" tooltips="1" connect="1" arrows="1" fold="1" page="1" pageScale="1" pageWidth="827" pageHeight="1169" math="0" shadow="0">
      <root>
        <mxCell id="0" />
        <mxCell id="1" parent="0" />
        <mxCell id="_XAy8CY_OtNL0GFHrnGK-74" value="" style="group" vertex="1" connectable="0" parent="1">
          <mxGeometry x="80" y="80" width="160" height="160" as="geometry" />
        </mxCell>
        <mxCell id="_XAy8CY_OtNL0GFHrnGK-1" value="&lt;hr&gt;&lt;hr&gt;" style="rounded=0;whiteSpace=wrap;html=1;labelBackgroundColor=none;fillColor=#d5e8d4;strokeColor=#82b366;container=0;" vertex="1" parent="_XAy8CY_OtNL0GFHrnGK-74">
          <mxGeometry width="160" height="160" as="geometry" />
        </mxCell>
        <mxCell id="_XAy8CY_OtNL0GFHrnGK-7" value="" style="endArrow=none;html=1;rounded=0;strokeColor=#0B0D0F;fontColor=#46495D;fillColor=#B2C9AB;exitX=0;exitY=0.25;exitDx=0;exitDy=0;entryX=1;entryY=0.25;entryDx=0;entryDy=0;" edge="1" parent="_XAy8CY_OtNL0GFHrnGK-74" source="_XAy8CY_OtNL0GFHrnGK-1" target="_XAy8CY_OtNL0GFHrnGK-1">
          <mxGeometry width="50" height="50" relative="1" as="geometry">
            <mxPoint x="240" y="220" as="sourcePoint" />
            <mxPoint x="290" y="170" as="targetPoint" />
          </mxGeometry>
        </mxCell>
        <mxCell id="_XAy8CY_OtNL0GFHrnGK-8" value="DogBreedIdentifier" style="text;html=1;align=center;verticalAlign=middle;resizable=0;points=[];autosize=1;strokeColor=none;fillColor=none;fontColor=#46495D;container=0;" vertex="1" parent="_XAy8CY_OtNL0GFHrnGK-74">
          <mxGeometry x="15" y="10" width="120" height="30" as="geometry" />
        </mxCell>
        <mxCell id="_XAy8CY_OtNL0GFHrnGK-9" value="&lt;span class=&quot;hljs-operator&quot;&gt;+&lt;/span&gt; identifyBreed()&lt;br&gt;&lt;div&gt;&lt;span style=&quot;background-color: initial;&quot; class=&quot;hljs-operator&quot;&gt;+&lt;/span&gt;&lt;span style=&quot;background-color: initial;&quot;&gt; loadImage()&lt;/span&gt;&amp;nbsp;&lt;/div&gt;" style="text;html=1;align=center;verticalAlign=middle;resizable=0;points=[];autosize=1;strokeColor=none;fillColor=none;fontColor=#46495D;container=0;" vertex="1" parent="_XAy8CY_OtNL0GFHrnGK-74">
          <mxGeometry x="20" y="65" width="110" height="40" as="geometry" />
        </mxCell>
        <mxCell id="_XAy8CY_OtNL0GFHrnGK-10" style="edgeStyle=none;rounded=0;orthogonalLoop=1;jettySize=auto;html=1;exitX=0.5;exitY=1;exitDx=0;exitDy=0;strokeColor=#788AA3;fontColor=#46495D;fillColor=#B2C9AB;" edge="1" parent="_XAy8CY_OtNL0GFHrnGK-74" source="_XAy8CY_OtNL0GFHrnGK-1" target="_XAy8CY_OtNL0GFHrnGK-1">
          <mxGeometry relative="1" as="geometry" />
        </mxCell>
        <mxCell id="_XAy8CY_OtNL0GFHrnGK-75" value="" style="group" vertex="1" connectable="0" parent="1">
          <mxGeometry x="320" y="80" width="160" height="165" as="geometry" />
        </mxCell>
        <mxCell id="_XAy8CY_OtNL0GFHrnGK-66" value="&lt;hr&gt;&lt;hr&gt;" style="rounded=0;whiteSpace=wrap;html=1;labelBackgroundColor=none;fillColor=#d5e8d4;strokeColor=#82b366;container=0;" vertex="1" parent="_XAy8CY_OtNL0GFHrnGK-75">
          <mxGeometry width="160" height="160" as="geometry" />
        </mxCell>
        <mxCell id="_XAy8CY_OtNL0GFHrnGK-12" value="" style="endArrow=none;html=1;rounded=0;strokeColor=#0B0D0F;fontColor=#46495D;fillColor=#B2C9AB;exitX=0;exitY=0.25;exitDx=0;exitDy=0;entryX=1;entryY=0.25;entryDx=0;entryDy=0;" edge="1" parent="_XAy8CY_OtNL0GFHrnGK-75">
          <mxGeometry width="50" height="50" relative="1" as="geometry">
            <mxPoint y="45" as="sourcePoint" />
            <mxPoint x="160" y="45" as="targetPoint" />
          </mxGeometry>
        </mxCell>
        <mxCell id="_XAy8CY_OtNL0GFHrnGK-13" value="&amp;nbsp;ImageProcessor&amp;nbsp;" style="text;html=1;align=center;verticalAlign=middle;resizable=0;points=[];autosize=1;strokeColor=none;fillColor=none;fontColor=#46495D;container=0;" vertex="1" parent="_XAy8CY_OtNL0GFHrnGK-75">
          <mxGeometry x="25" y="10.5" width="120" height="30" as="geometry" />
        </mxCell>
        <mxCell id="_XAy8CY_OtNL0GFHrnGK-14" value="&lt;span class=&quot;hljs-operator&quot;&gt;+&lt;/span&gt; processImage()&lt;br&gt;&lt;div&gt;&lt;span style=&quot;background-color: initial;&quot; class=&quot;hljs-operator&quot;&gt;+&lt;/span&gt;&lt;span style=&quot;background-color: initial;&quot;&gt; detectFeatures()&lt;/span&gt;&amp;nbsp;&amp;nbsp;&lt;/div&gt;" style="text;html=1;align=center;verticalAlign=middle;resizable=0;points=[];autosize=1;strokeColor=none;fillColor=none;fontColor=#46495D;container=0;" vertex="1" parent="_XAy8CY_OtNL0GFHrnGK-75">
          <mxGeometry x="15" y="66.5" width="130" height="40" as="geometry" />
        </mxCell>
        <mxCell id="_XAy8CY_OtNL0GFHrnGK-15" style="edgeStyle=none;rounded=0;orthogonalLoop=1;jettySize=auto;html=1;exitX=0.5;exitY=1;exitDx=0;exitDy=0;strokeColor=#788AA3;fontColor=#46495D;fillColor=#B2C9AB;" edge="1" parent="_XAy8CY_OtNL0GFHrnGK-75">
          <mxGeometry relative="1" as="geometry">
            <mxPoint x="80" y="165" as="sourcePoint" />
            <mxPoint x="80" y="165" as="targetPoint" />
          </mxGeometry>
        </mxCell>
        <mxCell id="_XAy8CY_OtNL0GFHrnGK-76" value="" style="group" vertex="1" connectable="0" parent="1">
          <mxGeometry x="560" y="80" width="160" height="160" as="geometry" />
        </mxCell>
        <mxCell id="_XAy8CY_OtNL0GFHrnGK-84" style="edgeStyle=none;rounded=0;orthogonalLoop=1;jettySize=auto;html=1;strokeColor=#788AA3;fontColor=#46495D;fillColor=#B2C9AB;" edge="1" parent="_XAy8CY_OtNL0GFHrnGK-76" source="_XAy8CY_OtNL0GFHrnGK-36">
          <mxGeometry relative="1" as="geometry">
            <mxPoint x="80" y="240" as="targetPoint" />
          </mxGeometry>
        </mxCell>
        <mxCell id="_XAy8CY_OtNL0GFHrnGK-36" value="&lt;hr&gt;&lt;hr&gt;" style="rounded=0;whiteSpace=wrap;html=1;labelBackgroundColor=none;fillColor=#d5e8d4;strokeColor=#82b366;container=0;" vertex="1" parent="_XAy8CY_OtNL0GFHrnGK-76">
          <mxGeometry width="160" height="160" as="geometry" />
        </mxCell>
        <mxCell id="_XAy8CY_OtNL0GFHrnGK-37" value="" style="endArrow=none;html=1;rounded=0;strokeColor=#0B0D0F;fontColor=#46495D;fillColor=#B2C9AB;exitX=0;exitY=0.25;exitDx=0;exitDy=0;entryX=1;entryY=0.25;entryDx=0;entryDy=0;" edge="1" parent="_XAy8CY_OtNL0GFHrnGK-76" source="_XAy8CY_OtNL0GFHrnGK-36" target="_XAy8CY_OtNL0GFHrnGK-36">
          <mxGeometry width="50" height="50" relative="1" as="geometry">
            <mxPoint x="240" y="220" as="sourcePoint" />
            <mxPoint x="290" y="170" as="targetPoint" />
          </mxGeometry>
        </mxCell>
        <mxCell id="_XAy8CY_OtNL0GFHrnGK-38" value="&lt;span class=&quot;hljs-keyword&quot;&gt;Classifier&lt;/span&gt;" style="text;html=1;align=center;verticalAlign=middle;resizable=0;points=[];autosize=1;strokeColor=none;fillColor=none;fontColor=#46495D;container=0;" vertex="1" parent="_XAy8CY_OtNL0GFHrnGK-76">
          <mxGeometry x="40" y="10" width="70" height="30" as="geometry" />
        </mxCell>
        <mxCell id="_XAy8CY_OtNL0GFHrnGK-39" value="&lt;div&gt;&lt;span style=&quot;background-color: initial;&quot; class=&quot;hljs-operator&quot;&gt;&lt;span class=&quot;hljs-operator&quot;&gt;+&lt;/span&gt; classifyBreed()&lt;/span&gt;&lt;/div&gt;&lt;div&gt;&lt;span class=&quot;hljs-operator&quot;&gt;+&lt;/span&gt; trainModel()&amp;nbsp;&amp;nbsp;&lt;/div&gt;" style="text;html=1;align=center;verticalAlign=middle;resizable=0;points=[];autosize=1;strokeColor=none;fillColor=none;fontColor=#46495D;container=0;" vertex="1" parent="_XAy8CY_OtNL0GFHrnGK-76">
          <mxGeometry x="20" y="65" width="110" height="40" as="geometry" />
        </mxCell>
        <mxCell id="_XAy8CY_OtNL0GFHrnGK-40" style="edgeStyle=none;rounded=0;orthogonalLoop=1;jettySize=auto;html=1;exitX=0.5;exitY=1;exitDx=0;exitDy=0;strokeColor=#788AA3;fontColor=#46495D;fillColor=#B2C9AB;" edge="1" parent="_XAy8CY_OtNL0GFHrnGK-76" source="_XAy8CY_OtNL0GFHrnGK-36" target="_XAy8CY_OtNL0GFHrnGK-36">
          <mxGeometry relative="1" as="geometry" />
        </mxCell>
        <mxCell id="_XAy8CY_OtNL0GFHrnGK-77" value="" style="group" vertex="1" connectable="0" parent="1">
          <mxGeometry x="80" y="320" width="160" height="160" as="geometry" />
        </mxCell>
        <mxCell id="_XAy8CY_OtNL0GFHrnGK-41" value="&lt;hr&gt;&lt;hr&gt;" style="rounded=0;whiteSpace=wrap;html=1;labelBackgroundColor=none;fillColor=#d5e8d4;strokeColor=#82b366;container=0;" vertex="1" parent="_XAy8CY_OtNL0GFHrnGK-77">
          <mxGeometry width="160" height="160" as="geometry" />
        </mxCell>
        <mxCell id="_XAy8CY_OtNL0GFHrnGK-42" value="" style="endArrow=none;html=1;rounded=0;strokeColor=#0B0D0F;fontColor=#46495D;fillColor=#B2C9AB;exitX=0;exitY=0.25;exitDx=0;exitDy=0;entryX=1;entryY=0.25;entryDx=0;entryDy=0;" edge="1" parent="_XAy8CY_OtNL0GFHrnGK-77" source="_XAy8CY_OtNL0GFHrnGK-41" target="_XAy8CY_OtNL0GFHrnGK-41">
          <mxGeometry width="50" height="50" relative="1" as="geometry">
            <mxPoint x="240" y="220" as="sourcePoint" />
            <mxPoint x="290" y="170" as="targetPoint" />
          </mxGeometry>
        </mxCell>
        <mxCell id="_XAy8CY_OtNL0GFHrnGK-43" value="UserInterface " style="text;html=1;align=center;verticalAlign=middle;resizable=0;points=[];autosize=1;strokeColor=none;fillColor=none;fontColor=#46495D;container=0;" vertex="1" parent="_XAy8CY_OtNL0GFHrnGK-77">
          <mxGeometry x="25" y="10" width="100" height="30" as="geometry" />
        </mxCell>
        <mxCell id="_XAy8CY_OtNL0GFHrnGK-44" value="&lt;div&gt;&lt;span style=&quot;background-color: initial;&quot; class=&quot;hljs-operator&quot;&gt;&lt;span class=&quot;hljs-operator&quot;&gt;+&lt;/span&gt; getInput()&amp;nbsp;&lt;/span&gt;&lt;/div&gt;&lt;div&gt;&lt;span style=&quot;background-color: initial;&quot; class=&quot;hljs-operator&quot;&gt;&amp;nbsp;&lt;/span&gt;&lt;span style=&quot;background-color: initial;&quot; class=&quot;hljs-operator&quot;&gt;+&lt;/span&gt;&lt;span style=&quot;background-color: initial;&quot;&gt; showResult()&lt;/span&gt;&lt;/div&gt;" style="text;html=1;align=center;verticalAlign=middle;resizable=0;points=[];autosize=1;strokeColor=none;fillColor=none;fontColor=#46495D;container=0;" vertex="1" parent="_XAy8CY_OtNL0GFHrnGK-77">
          <mxGeometry x="20" y="65" width="110" height="40" as="geometry" />
        </mxCell>
        <mxCell id="_XAy8CY_OtNL0GFHrnGK-45" style="edgeStyle=none;rounded=0;orthogonalLoop=1;jettySize=auto;html=1;exitX=0.5;exitY=1;exitDx=0;exitDy=0;strokeColor=#788AA3;fontColor=#46495D;fillColor=#B2C9AB;" edge="1" parent="_XAy8CY_OtNL0GFHrnGK-77" source="_XAy8CY_OtNL0GFHrnGK-41" target="_XAy8CY_OtNL0GFHrnGK-41">
          <mxGeometry relative="1" as="geometry" />
        </mxCell>
        <mxCell id="_XAy8CY_OtNL0GFHrnGK-78" value="" style="group" vertex="1" connectable="0" parent="1">
          <mxGeometry x="320" y="320" width="160" height="160" as="geometry" />
        </mxCell>
        <mxCell id="_XAy8CY_OtNL0GFHrnGK-46" value="&lt;hr&gt;&lt;hr&gt;" style="rounded=0;whiteSpace=wrap;html=1;labelBackgroundColor=none;fillColor=#d5e8d4;strokeColor=#82b366;container=0;" vertex="1" parent="_XAy8CY_OtNL0GFHrnGK-78">
          <mxGeometry width="160" height="160" as="geometry" />
        </mxCell>
        <mxCell id="_XAy8CY_OtNL0GFHrnGK-47" value="" style="endArrow=none;html=1;rounded=0;strokeColor=#0B0D0F;fontColor=#46495D;fillColor=#B2C9AB;exitX=0;exitY=0.25;exitDx=0;exitDy=0;entryX=1;entryY=0.25;entryDx=0;entryDy=0;" edge="1" parent="_XAy8CY_OtNL0GFHrnGK-78" source="_XAy8CY_OtNL0GFHrnGK-46" target="_XAy8CY_OtNL0GFHrnGK-46">
          <mxGeometry width="50" height="50" relative="1" as="geometry">
            <mxPoint x="240" y="220" as="sourcePoint" />
            <mxPoint x="290" y="170" as="targetPoint" />
          </mxGeometry>
        </mxCell>
        <mxCell id="_XAy8CY_OtNL0GFHrnGK-48" value=" Breed  " style="text;html=1;align=center;verticalAlign=middle;resizable=0;points=[];autosize=1;strokeColor=none;fillColor=none;fontColor=#46495D;container=0;" vertex="1" parent="_XAy8CY_OtNL0GFHrnGK-78">
          <mxGeometry x="45" y="10" width="60" height="30" as="geometry" />
        </mxCell>
        <mxCell id="_XAy8CY_OtNL0GFHrnGK-49" value="&lt;div&gt;&lt;span style=&quot;background-color: initial;&quot; class=&quot;hljs-operator&quot;&gt;&lt;span class=&quot;hljs-operator&quot;&gt;-&lt;/span&gt; name&lt;/span&gt;&lt;/div&gt;&lt;div&gt;&lt;span class=&quot;hljs-operator&quot;&gt;-&lt;/span&gt; characteristics&amp;nbsp;&lt;/div&gt;" style="text;html=1;align=center;verticalAlign=middle;resizable=0;points=[];autosize=1;strokeColor=none;fillColor=none;fontColor=#46495D;container=0;" vertex="1" parent="_XAy8CY_OtNL0GFHrnGK-78">
          <mxGeometry x="20" y="65" width="110" height="40" as="geometry" />
        </mxCell>
        <mxCell id="_XAy8CY_OtNL0GFHrnGK-50" style="edgeStyle=none;rounded=0;orthogonalLoop=1;jettySize=auto;html=1;exitX=0.5;exitY=1;exitDx=0;exitDy=0;strokeColor=#788AA3;fontColor=#46495D;fillColor=#B2C9AB;" edge="1" parent="_XAy8CY_OtNL0GFHrnGK-78" source="_XAy8CY_OtNL0GFHrnGK-46" target="_XAy8CY_OtNL0GFHrnGK-46">
          <mxGeometry relative="1" as="geometry" />
        </mxCell>
        <mxCell id="_XAy8CY_OtNL0GFHrnGK-79" value="" style="group" vertex="1" connectable="0" parent="1">
          <mxGeometry x="560" y="320" width="160" height="160" as="geometry" />
        </mxCell>
        <mxCell id="_XAy8CY_OtNL0GFHrnGK-51" value="&lt;hr&gt;&lt;hr&gt;" style="rounded=0;whiteSpace=wrap;html=1;labelBackgroundColor=none;fillColor=#d5e8d4;strokeColor=#82b366;container=0;" vertex="1" parent="_XAy8CY_OtNL0GFHrnGK-79">
          <mxGeometry width="160" height="160" as="geometry" />
        </mxCell>
        <mxCell id="_XAy8CY_OtNL0GFHrnGK-52" value="" style="endArrow=none;html=1;rounded=0;strokeColor=#0B0D0F;fontColor=#46495D;fillColor=#B2C9AB;exitX=0;exitY=0.25;exitDx=0;exitDy=0;entryX=1;entryY=0.25;entryDx=0;entryDy=0;" edge="1" parent="_XAy8CY_OtNL0GFHrnGK-79" source="_XAy8CY_OtNL0GFHrnGK-51" target="_XAy8CY_OtNL0GFHrnGK-51">
          <mxGeometry width="50" height="50" relative="1" as="geometry">
            <mxPoint x="240" y="220" as="sourcePoint" />
            <mxPoint x="290" y="170" as="targetPoint" />
          </mxGeometry>
        </mxCell>
        <mxCell id="_XAy8CY_OtNL0GFHrnGK-53" value="BreedDatabase" style="text;html=1;align=center;verticalAlign=middle;resizable=0;points=[];autosize=1;strokeColor=none;fillColor=none;fontColor=#46495D;container=0;" vertex="1" parent="_XAy8CY_OtNL0GFHrnGK-79">
          <mxGeometry x="20" y="10" width="110" height="30" as="geometry" />
        </mxCell>
        <mxCell id="_XAy8CY_OtNL0GFHrnGK-54" value="&lt;span class=&quot;hljs-operator&quot;&gt;+&lt;/span&gt; getBreedInfo()&lt;div&gt;&lt;span class=&quot;hljs-operator&quot;&gt;+&lt;/span&gt; addBreed()&amp;nbsp;&lt;/div&gt;" style="text;html=1;align=center;verticalAlign=middle;resizable=0;points=[];autosize=1;strokeColor=none;fillColor=none;fontColor=#46495D;container=0;" vertex="1" parent="_XAy8CY_OtNL0GFHrnGK-79">
          <mxGeometry x="20" y="65" width="110" height="40" as="geometry" />
        </mxCell>
        <mxCell id="_XAy8CY_OtNL0GFHrnGK-55" style="edgeStyle=none;rounded=0;orthogonalLoop=1;jettySize=auto;html=1;exitX=0.5;exitY=1;exitDx=0;exitDy=0;strokeColor=#788AA3;fontColor=#46495D;fillColor=#B2C9AB;" edge="1" parent="_XAy8CY_OtNL0GFHrnGK-79" source="_XAy8CY_OtNL0GFHrnGK-51" target="_XAy8CY_OtNL0GFHrnGK-51">
          <mxGeometry relative="1" as="geometry" />
        </mxCell>
        <mxCell id="_XAy8CY_OtNL0GFHrnGK-80" style="edgeStyle=none;rounded=0;orthogonalLoop=1;jettySize=auto;html=1;strokeColor=#788AA3;fontColor=#46495D;fillColor=#B2C9AB;entryX=0;entryY=0.5;entryDx=0;entryDy=0;" edge="1" parent="1" source="_XAy8CY_OtNL0GFHrnGK-41" target="_XAy8CY_OtNL0GFHrnGK-46">
          <mxGeometry relative="1" as="geometry">
            <mxPoint x="260" y="400" as="targetPoint" />
          </mxGeometry>
        </mxCell>
        <mxCell id="_XAy8CY_OtNL0GFHrnGK-81" style="edgeStyle=none;rounded=0;orthogonalLoop=1;jettySize=auto;html=1;exitX=1;exitY=0.5;exitDx=0;exitDy=0;entryX=0;entryY=0.5;entryDx=0;entryDy=0;strokeColor=#788AA3;fontColor=#46495D;fillColor=#B2C9AB;" edge="1" parent="1" source="_XAy8CY_OtNL0GFHrnGK-46" target="_XAy8CY_OtNL0GFHrnGK-51">
          <mxGeometry relative="1" as="geometry" />
        </mxCell>
        <mxCell id="_XAy8CY_OtNL0GFHrnGK-82" style="edgeStyle=none;rounded=0;orthogonalLoop=1;jettySize=auto;html=1;strokeColor=#788AA3;fontColor=#46495D;fillColor=#B2C9AB;entryX=0;entryY=0.5;entryDx=0;entryDy=0;" edge="1" parent="1" source="_XAy8CY_OtNL0GFHrnGK-1" target="_XAy8CY_OtNL0GFHrnGK-66">
          <mxGeometry relative="1" as="geometry">
            <mxPoint x="270" y="160" as="targetPoint" />
          </mxGeometry>
        </mxCell>
        <mxCell id="_XAy8CY_OtNL0GFHrnGK-83" style="edgeStyle=none;rounded=0;orthogonalLoop=1;jettySize=auto;html=1;entryX=0;entryY=0.5;entryDx=0;entryDy=0;strokeColor=#788AA3;fontColor=#46495D;fillColor=#B2C9AB;" edge="1" parent="1" source="_XAy8CY_OtNL0GFHrnGK-66" target="_XAy8CY_OtNL0GFHrnGK-36">
          <mxGeometry relative="1" as="geometry" />
        </mxCell>
      </root>
    </mxGraphModel>
  </diagram>
</mxfile>
